<?xml version="1.0" encoding="utf-8"?>
<!-- Generator: Adobe Illustrator 23.0.2, SVG Export Plug-In . SVG Version: 6.00 Build 0)  -->
<svg version="1.1" id="レイヤー_1" xmlns="http://www.w3.org/2000/svg" xmlns:xlink="http://www.w3.org/1999/xlink" x="0px"
	 y="0px" viewBox="0 0 56.7 56.7" style="enable-background:new 0 0 56.7 56.7;" xml:space="preserve">
<style type="text/css">
	.st0{fill:#C5B999;}
	.st1{fill:#D53B51;}
	.st2{fill:#21B07A;}
</style>
<g>
	<g>
		<polygon class="st0" points="24,36.4 3.5,56.7 5.8,56.7 43.2,56.7 44,56.7 		"/>
		<path class="st1" d="M26.7,33.8l22.2,22.5c4.4-0.3,7.8-4,7.8-8.4V44V6.2V3.9L26.7,33.8z"/>
	</g>
	<path class="st2" d="M48.6,0H13.7H8.1C3.7,0,0,3.6,0,8.1V14v34.3v7.1L55.7,0H48.6z M19.3,7.9c1.4,0,2.6,1.1,2.6,2.6
		c0,1.4-1.1,2.6-2.6,2.6c-1.4,0-2.6-1.1-2.6-2.6C16.7,9.1,17.8,7.9,19.3,7.9z M10.6,7.9c1.4,0,2.6,1.1,2.6,2.6
		c0,1.4-1.2,2.6-2.6,2.6c-1.4,0-2.6-1.1-2.6-2.6C8.1,9.1,9.2,7.9,10.6,7.9z M30.8,13.5L15.9,28.1c-0.3,0.3-0.7,0.5-1.1,0.5
		c0,0,0,0,0,0c-0.4,0-0.8-0.2-1.1-0.5L7,21.2c-0.6-0.6-0.6-1.7,0-2.3c0.6-0.6,1.7-0.6,2.3,0l5.5,5.7l13.7-13.4
		c0.6-0.6,1.7-0.6,2.3,0C31.4,11.8,31.4,12.9,30.8,13.5z"/>
</g>
</svg>
